<svg id="visual" viewBox="0 0 1600 900" width="1600" height="900" xmlns="http://www.w3.org/2000/svg" xmlns:xlink="http://www.w3.org/1999/xlink" version="1.1"><rect x="0" y="0" width="1600" height="900" fill="#010d16"></rect><path d="M0 111L38.2 115.8C76.3 120.7 152.7 130.3 228.8 128.8C305 127.3 381 114.7 457.2 113.5C533.3 112.3 609.7 122.7 685.8 129.3C762 136 838 139 914.2 138.2C990.3 137.3 1066.7 132.7 1142.8 133C1219 133.3 1295 138.7 1371.2 140C1447.3 141.3 1523.7 138.7 1561.8 137.3L1600 136L1600 0L1561.8 0C1523.7 0 1447.3 0 1371.2 0C1295 0 1219 0 1142.8 0C1066.7 0 990.3 0 914.2 0C838 0 762 0 685.8 0C609.7 0 533.3 0 457.2 0C381 0 305 0 228.8 0C152.7 0 76.3 0 38.2 0L0 0Z" fill="#d857bd"></path><path d="M0 82L38.2 88.7C76.3 95.3 152.7 108.7 228.8 111.2C305 113.7 381 105.3 457.2 100.2C533.3 95 609.7 93 685.8 95.8C762 98.7 838 106.3 914.2 105.2C990.3 104 1066.7 94 1142.8 88.2C1219 82.3 1295 80.7 1371.2 83.8C1447.3 87 1523.7 95 1561.8 99L1600 103L1600 0L1561.8 0C1523.7 0 1447.3 0 1371.2 0C1295 0 1219 0 1142.8 0C1066.7 0 990.3 0 914.2 0C838 0 762 0 685.8 0C609.7 0 533.3 0 457.2 0C381 0 305 0 228.8 0C152.7 0 76.3 0 38.2 0L0 0Z" fill="#d24dc2"></path><path d="M0 92L38.2 86.8C76.3 81.7 152.7 71.3 228.8 69.7C305 68 381 75 457.2 81C533.3 87 609.7 92 685.8 95.3C762 98.7 838 100.3 914.2 101.2C990.3 102 1066.7 102 1142.8 96.8C1219 91.7 1295 81.3 1371.2 75.3C1447.3 69.3 1523.7 67.7 1561.8 66.8L1600 66L1600 0L1561.8 0C1523.7 0 1447.3 0 1371.2 0C1295 0 1219 0 1142.8 0C1066.7 0 990.3 0 914.2 0C838 0 762 0 685.8 0C609.7 0 533.3 0 457.2 0C381 0 305 0 228.8 0C152.7 0 76.3 0 38.2 0L0 0Z" fill="#ca44c7"></path><path d="M0 71L38.2 72.3C76.3 73.7 152.7 76.3 228.8 74C305 71.7 381 64.3 457.2 64.2C533.3 64 609.7 71 685.8 73.3C762 75.7 838 73.3 914.2 70.3C990.3 67.3 1066.7 63.7 1142.8 61.8C1219 60 1295 60 1371.2 58.8C1447.3 57.7 1523.7 55.3 1561.8 54.2L1600 53L1600 0L1561.8 0C1523.7 0 1447.3 0 1371.2 0C1295 0 1219 0 1142.8 0C1066.7 0 990.3 0 914.2 0C838 0 762 0 685.8 0C609.7 0 533.3 0 457.2 0C381 0 305 0 228.8 0C152.7 0 76.3 0 38.2 0L0 0Z" fill="#c03ccd"></path><path d="M0 51L38.2 52.5C76.3 54 152.7 57 228.8 57.8C305 58.7 381 57.3 457.2 52.2C533.3 47 609.7 38 685.8 34.8C762 31.7 838 34.3 914.2 34.3C990.3 34.3 1066.7 31.7 1142.8 32.5C1219 33.3 1295 37.7 1371.2 42.3C1447.3 47 1523.7 52 1561.8 54.5L1600 57L1600 0L1561.8 0C1523.7 0 1447.3 0 1371.2 0C1295 0 1219 0 1142.8 0C1066.7 0 990.3 0 914.2 0C838 0 762 0 685.8 0C609.7 0 533.3 0 457.2 0C381 0 305 0 228.8 0C152.7 0 76.3 0 38.2 0L0 0Z" fill="#b535d4"></path><path d="M0 21L38.2 23.7C76.3 26.3 152.7 31.7 228.8 30.3C305 29 381 21 457.2 17.5C533.3 14 609.7 15 685.8 17.5C762 20 838 24 914.2 23.8C990.3 23.7 1066.7 19.3 1142.8 18.8C1219 18.3 1295 21.7 1371.2 22.2C1447.3 22.7 1523.7 20.3 1561.8 19.2L1600 18L1600 0L1561.8 0C1523.7 0 1447.3 0 1371.2 0C1295 0 1219 0 1142.8 0C1066.7 0 990.3 0 914.2 0C838 0 762 0 685.8 0C609.7 0 533.3 0 457.2 0C381 0 305 0 228.8 0C152.7 0 76.3 0 38.2 0L0 0Z" fill="#a730db"></path></svg>