<svg id="visual" viewBox="0 0 1600 900" width="1600" height="900" xmlns="http://www.w3.org/2000/svg" xmlns:xlink="http://www.w3.org/1999/xlink" version="1.1"><rect x="0" y="0" width="1600" height="900" fill="#010d16"></rect><path d="M0 787L38.2 782.2C76.3 777.3 152.7 767.7 228.8 769.2C305 770.7 381 783.3 457.2 784.5C533.3 785.7 609.7 775.3 685.8 768.7C762 762 838 759 914.2 759.8C990.3 760.7 1066.7 765.3 1142.8 765C1219 764.7 1295 759.3 1371.2 758C1447.3 756.7 1523.7 759.3 1561.8 760.7L1600 762L1600 901L1561.8 901C1523.7 901 1447.3 901 1371.2 901C1295 901 1219 901 1142.8 901C1066.7 901 990.3 901 914.2 901C838 901 762 901 685.8 901C609.7 901 533.3 901 457.2 901C381 901 305 901 228.8 901C152.7 901 76.3 901 38.2 901L0 901Z" fill="#d857bd"></path><path d="M0 816L38.2 809.3C76.3 802.7 152.7 789.3 228.8 786.8C305 784.3 381 792.7 457.2 797.8C533.3 803 609.7 805 685.8 802.2C762 799.3 838 791.7 914.2 792.8C990.3 794 1066.7 804 1142.8 809.8C1219 815.7 1295 817.3 1371.2 814.2C1447.3 811 1523.7 803 1561.8 799L1600 795L1600 901L1561.8 901C1523.7 901 1447.3 901 1371.2 901C1295 901 1219 901 1142.8 901C1066.7 901 990.3 901 914.2 901C838 901 762 901 685.8 901C609.7 901 533.3 901 457.2 901C381 901 305 901 228.8 901C152.7 901 76.3 901 38.2 901L0 901Z" fill="#d24dc2"></path><path d="M0 806L38.2 811.2C76.3 816.3 152.7 826.7 228.8 828.3C305 830 381 823 457.2 817C533.3 811 609.7 806 685.8 802.7C762 799.3 838 797.7 914.2 796.8C990.3 796 1066.7 796 1142.8 801.2C1219 806.3 1295 816.7 1371.2 822.7C1447.3 828.7 1523.7 830.3 1561.8 831.2L1600 832L1600 901L1561.8 901C1523.7 901 1447.3 901 1371.2 901C1295 901 1219 901 1142.8 901C1066.7 901 990.3 901 914.2 901C838 901 762 901 685.8 901C609.7 901 533.3 901 457.2 901C381 901 305 901 228.8 901C152.7 901 76.3 901 38.2 901L0 901Z" fill="#ca44c7"></path><path d="M0 827L38.2 825.7C76.3 824.3 152.7 821.7 228.8 824C305 826.3 381 833.7 457.2 833.8C533.3 834 609.7 827 685.8 824.7C762 822.3 838 824.7 914.2 827.7C990.3 830.7 1066.7 834.3 1142.8 836.2C1219 838 1295 838 1371.2 839.2C1447.3 840.3 1523.7 842.7 1561.8 843.8L1600 845L1600 901L1561.8 901C1523.7 901 1447.3 901 1371.2 901C1295 901 1219 901 1142.8 901C1066.7 901 990.3 901 914.2 901C838 901 762 901 685.8 901C609.7 901 533.3 901 457.2 901C381 901 305 901 228.8 901C152.7 901 76.3 901 38.2 901L0 901Z" fill="#c03ccd"></path><path d="M0 847L38.2 845.5C76.3 844 152.7 841 228.8 840.2C305 839.3 381 840.7 457.2 845.8C533.3 851 609.7 860 685.8 863.2C762 866.3 838 863.7 914.2 863.7C990.3 863.7 1066.7 866.3 1142.8 865.5C1219 864.7 1295 860.3 1371.2 855.7C1447.3 851 1523.7 846 1561.8 843.5L1600 841L1600 901L1561.8 901C1523.7 901 1447.3 901 1371.2 901C1295 901 1219 901 1142.8 901C1066.7 901 990.3 901 914.2 901C838 901 762 901 685.8 901C609.7 901 533.3 901 457.2 901C381 901 305 901 228.8 901C152.7 901 76.3 901 38.2 901L0 901Z" fill="#b535d4"></path><path d="M0 877L38.2 874.3C76.3 871.7 152.7 866.3 228.8 867.7C305 869 381 877 457.2 880.5C533.3 884 609.7 883 685.8 880.5C762 878 838 874 914.2 874.2C990.3 874.3 1066.7 878.7 1142.8 879.2C1219 879.7 1295 876.3 1371.2 875.8C1447.3 875.3 1523.7 877.7 1561.8 878.8L1600 880L1600 901L1561.8 901C1523.7 901 1447.3 901 1371.2 901C1295 901 1219 901 1142.8 901C1066.7 901 990.3 901 914.2 901C838 901 762 901 685.8 901C609.7 901 533.3 901 457.2 901C381 901 305 901 228.8 901C152.7 901 76.3 901 38.2 901L0 901Z" fill="#a730db"></path></svg>