<svg id="visual" viewBox="0 0 1600 100" width="1600" height="100" xmlns="http://www.w3.org/2000/svg" xmlns:xlink="http://www.w3.org/1999/xlink" version="1.1"><path d="M0 8L14 7.7C28 7.3 56 6.7 84 7.3C112 8 140 10 168.2 10.7C196.3 11.3 224.7 10.7 252.8 9.8C281 9 309 8 337 7.2C365 6.3 393 5.7 421 5.8C449 6 477 7 505 7.5C533 8 561 8 589.2 8.2C617.3 8.3 645.7 8.7 673.8 9.2C702 9.7 730 10.3 758 11.2C786 12 814 13 842 12.5C870 12 898 10 926.2 9.5C954.3 9 982.7 10 1010.8 9.8C1039 9.7 1067 8.3 1095 7.3C1123 6.3 1151 5.7 1179 6.2C1207 6.7 1235 8.3 1263 9C1291 9.7 1319 9.3 1347.2 9.2C1375.3 9 1403.7 9 1431.8 9.5C1460 10 1488 11 1516 11.5C1544 12 1572 12 1586 12L1600 12L1600 0L1586 0C1572 0 1544 0 1516 0C1488 0 1460 0 1431.8 0C1403.7 0 1375.3 0 1347.2 0C1319 0 1291 0 1263 0C1235 0 1207 0 1179 0C1151 0 1123 0 1095 0C1067 0 1039 0 1010.8 0C982.7 0 954.3 0 926.2 0C898 0 870 0 842 0C814 0 786 0 758 0C730 0 702 0 673.8 0C645.7 0 617.3 0 589.2 0C561 0 533 0 505 0C477 0 449 0 421 0C393 0 365 0 337 0C309 0 281 0 252.8 0C224.7 0 196.3 0 168.2 0C140 0 112 0 84 0C56 0 28 0 14 0L0 0Z" fill="#881986"></path><path d="M0 14L14 13.8C28 13.7 56 13.3 84 13.7C112 14 140 15 168.2 16.2C196.3 17.3 224.7 18.7 252.8 18.5C281 18.3 309 16.7 337 15.3C365 14 393 13 421 13.5C449 14 477 16 505 17.3C533 18.7 561 19.3 589.2 19.7C617.3 20 645.7 20 673.8 20C702 20 730 20 758 21C786 22 814 24 842 23.7C870 23.3 898 20.7 926.2 18.8C954.3 17 982.7 16 1010.8 14.8C1039 13.7 1067 12.3 1095 12.2C1123 12 1151 13 1179 13.7C1207 14.3 1235 14.7 1263 15.3C1291 16 1319 17 1347.2 17C1375.3 17 1403.7 16 1431.8 16.7C1460 17.3 1488 19.7 1516 19.8C1544 20 1572 18 1586 17L1600 16L1600 10L1586 10C1572 10 1544 10 1516 9.5C1488 9 1460 8 1431.8 7.5C1403.7 7 1375.3 7 1347.2 7.2C1319 7.3 1291 7.7 1263 7C1235 6.3 1207 4.7 1179 4.2C1151 3.7 1123 4.3 1095 5.3C1067 6.3 1039 7.7 1010.8 7.8C982.7 8 954.3 7 926.2 7.5C898 8 870 10 842 10.5C814 11 786 10 758 9.2C730 8.3 702 7.7 673.8 7.2C645.7 6.7 617.3 6.3 589.2 6.2C561 6 533 6 505 5.5C477 5 449 4 421 3.8C393 3.7 365 4.3 337 5.2C309 6 281 7 252.8 7.8C224.7 8.7 196.3 9.3 168.2 8.7C140 8 112 6 84 5.3C56 4.7 28 5.3 14 5.7L0 6Z" fill="#a31da1"></path><path d="M0 43L14 42.3C28 41.7 56 40.3 84 40.3C112 40.3 140 41.7 168.2 40.8C196.3 40 224.7 37 252.8 36.7C281 36.3 309 38.7 337 40.5C365 42.3 393 43.7 421 43.3C449 43 477 41 505 39.7C533 38.3 561 37.7 589.2 37.3C617.3 37 645.7 37 673.8 38.8C702 40.7 730 44.3 758 45.7C786 47 814 46 842 46.2C870 46.3 898 47.7 926.2 45.2C954.3 42.7 982.7 36.3 1010.8 34.5C1039 32.7 1067 35.3 1095 37.2C1123 39 1151 40 1179 38.2C1207 36.3 1235 31.7 1263 30.3C1291 29 1319 31 1347.2 31.7C1375.3 32.3 1403.7 31.7 1431.8 33.3C1460 35 1488 39 1516 39.5C1544 40 1572 37 1586 35.5L1600 34L1600 14L1586 15C1572 16 1544 18 1516 17.8C1488 17.7 1460 15.3 1431.8 14.7C1403.7 14 1375.3 15 1347.2 15C1319 15 1291 14 1263 13.3C1235 12.7 1207 12.3 1179 11.7C1151 11 1123 10 1095 10.2C1067 10.3 1039 11.7 1010.8 12.8C982.7 14 954.3 15 926.2 16.8C898 18.7 870 21.3 842 21.7C814 22 786 20 758 19C730 18 702 18 673.8 18C645.7 18 617.3 18 589.2 17.7C561 17.3 533 16.7 505 15.3C477 14 449 12 421 11.5C393 11 365 12 337 13.3C309 14.7 281 16.3 252.8 16.5C224.7 16.7 196.3 15.3 168.2 14.2C140 13 112 12 84 11.7C56 11.3 28 11.7 14 11.8L0 12Z" fill="#bc2bb9"></path><path d="M0 60L14 59.8C28 59.7 56 59.3 84 57.7C112 56 140 53 168.2 51.5C196.3 50 224.7 50 252.8 51.7C281 53.3 309 56.7 337 57.3C365 58 393 56 421 55.5C449 55 477 56 505 56C533 56 561 55 589.2 52.8C617.3 50.7 645.7 47.3 673.8 48.8C702 50.3 730 56.7 758 58.7C786 60.7 814 58.3 842 59C870 59.7 898 63.3 926.2 61.7C954.3 60 982.7 53 1010.8 51C1039 49 1067 52 1095 52.2C1123 52.3 1151 49.7 1179 47.8C1207 46 1235 45 1263 44C1291 43 1319 42 1347.2 42C1375.3 42 1403.7 43 1431.8 45.3C1460 47.7 1488 51.3 1516 51.7C1544 52 1572 49 1586 47.5L1600 46L1600 32L1586 33.5C1572 35 1544 38 1516 37.5C1488 37 1460 33 1431.8 31.3C1403.7 29.7 1375.3 30.3 1347.2 29.7C1319 29 1291 27 1263 28.3C1235 29.7 1207 34.3 1179 36.2C1151 38 1123 37 1095 35.2C1067 33.3 1039 30.7 1010.8 32.5C982.7 34.3 954.3 40.7 926.2 43.2C898 45.7 870 44.3 842 44.2C814 44 786 45 758 43.7C730 42.3 702 38.7 673.8 36.8C645.7 35 617.3 35 589.2 35.3C561 35.7 533 36.3 505 37.7C477 39 449 41 421 41.3C393 41.7 365 40.3 337 38.5C309 36.7 281 34.3 252.8 34.7C224.7 35 196.3 38 168.2 38.8C140 39.7 112 38.3 84 38.3C56 38.3 28 39.7 14 40.3L0 41Z" fill="#c852c6"></path><path d="M0 72L14 72C28 72 56 72 84 72.2C112 72.3 140 72.7 168.2 73.5C196.3 74.3 224.7 75.7 252.8 75.3C281 75 309 73 337 71C365 69 393 67 421 67.3C449 67.7 477 70.3 505 71.3C533 72.3 561 71.7 589.2 71C617.3 70.3 645.7 69.7 673.8 70C702 70.3 730 71.7 758 73C786 74.3 814 75.7 842 76.3C870 77 898 77 926.2 76C954.3 75 982.7 73 1010.8 71.8C1039 70.7 1067 70.3 1095 69.8C1123 69.3 1151 68.7 1179 68C1207 67.3 1235 66.7 1263 67.7C1291 68.7 1319 71.3 1347.2 73.2C1375.3 75 1403.7 76 1431.8 75.5C1460 75 1488 73 1516 71.3C1544 69.7 1572 68.3 1586 67.7L1600 67L1600 44L1586 45.5C1572 47 1544 50 1516 49.7C1488 49.3 1460 45.7 1431.8 43.3C1403.7 41 1375.3 40 1347.2 40C1319 40 1291 41 1263 42C1235 43 1207 44 1179 45.8C1151 47.7 1123 50.3 1095 50.2C1067 50 1039 47 1010.8 49C982.7 51 954.3 58 926.2 59.7C898 61.3 870 57.7 842 57C814 56.3 786 58.7 758 56.7C730 54.7 702 48.3 673.8 46.8C645.7 45.3 617.3 48.7 589.2 50.8C561 53 533 54 505 54C477 54 449 53 421 53.5C393 54 365 56 337 55.3C309 54.7 281 51.3 252.8 49.7C224.7 48 196.3 48 168.2 49.5C140 51 112 54 84 55.7C56 57.3 28 57.7 14 57.8L0 58Z" fill="#cf65cd"></path><path d="M0 76L14 75.7C28 75.3 56 74.7 84 74.8C112 75 140 76 168.2 77.2C196.3 78.3 224.7 79.7 252.8 79.5C281 79.3 309 77.7 337 76.2C365 74.7 393 73.3 421 73.8C449 74.3 477 76.7 505 76.8C533 77 561 75 589.2 73.7C617.3 72.3 645.7 71.7 673.8 72.3C702 73 730 75 758 76.5C786 78 814 79 842 79.7C870 80.3 898 80.7 926.2 80.3C954.3 80 982.7 79 1010.8 78.3C1039 77.7 1067 77.3 1095 76.5C1123 75.7 1151 74.3 1179 73.5C1207 72.7 1235 72.3 1263 73.5C1291 74.7 1319 77.3 1347.2 78.5C1375.3 79.7 1403.7 79.3 1431.8 79C1460 78.7 1488 78.3 1516 77.7C1544 77 1572 76 1586 75.5L1600 75L1600 65L1586 65.7C1572 66.3 1544 67.7 1516 69.3C1488 71 1460 73 1431.8 73.5C1403.7 74 1375.3 73 1347.2 71.2C1319 69.3 1291 66.7 1263 65.7C1235 64.7 1207 65.3 1179 66C1151 66.7 1123 67.3 1095 67.8C1067 68.3 1039 68.7 1010.8 69.8C982.7 71 954.3 73 926.2 74C898 75 870 75 842 74.3C814 73.7 786 72.3 758 71C730 69.7 702 68.3 673.8 68C645.7 67.7 617.3 68.3 589.2 69C561 69.7 533 70.3 505 69.3C477 68.3 449 65.7 421 65.3C393 65 365 67 337 69C309 71 281 73 252.8 73.3C224.7 73.7 196.3 72.3 168.2 71.5C140 70.7 112 70.3 84 70.2C56 70 28 70 14 70L0 70Z" fill="#cf65cd"></path><path d="M0 79L14 79.3C28 79.7 56 80.3 84 81.2C112 82 140 83 168.2 83.8C196.3 84.7 224.7 85.3 252.8 85.2C281 85 309 84 337 82.8C365 81.7 393 80.3 421 80.2C449 80 477 81 505 81.2C533 81.3 561 80.7 589.2 80C617.3 79.3 645.7 78.7 673.8 79.2C702 79.7 730 81.3 758 82.3C786 83.3 814 83.7 842 83.8C870 84 898 84 926.2 84.2C954.3 84.3 982.7 84.7 1010.8 84.5C1039 84.3 1067 83.7 1095 82.5C1123 81.3 1151 79.7 1179 79C1207 78.3 1235 78.7 1263 79.3C1291 80 1319 81 1347.2 82C1375.3 83 1403.7 84 1431.8 83.8C1460 83.7 1488 82.3 1516 81.2C1544 80 1572 79 1586 78.5L1600 78L1600 73L1586 73.5C1572 74 1544 75 1516 75.7C1488 76.3 1460 76.7 1431.8 77C1403.7 77.3 1375.3 77.7 1347.2 76.5C1319 75.3 1291 72.7 1263 71.5C1235 70.3 1207 70.7 1179 71.5C1151 72.3 1123 73.7 1095 74.5C1067 75.3 1039 75.7 1010.8 76.3C982.7 77 954.3 78 926.2 78.3C898 78.7 870 78.3 842 77.7C814 77 786 76 758 74.5C730 73 702 71 673.8 70.3C645.7 69.7 617.3 70.3 589.2 71.7C561 73 533 75 505 74.8C477 74.7 449 72.3 421 71.8C393 71.3 365 72.7 337 74.2C309 75.7 281 77.3 252.8 77.5C224.7 77.7 196.3 76.3 168.2 75.2C140 74 112 73 84 72.8C56 72.7 28 73.3 14 73.7L0 74Z" fill="#c852c6"></path><path d="M0 87L14 86.8C28 86.7 56 86.3 84 87.3C112 88.3 140 90.7 168.2 91.8C196.3 93 224.7 93 252.8 92.5C281 92 309 91 337 89.8C365 88.7 393 87.3 421 86.7C449 86 477 86 505 85.7C533 85.3 561 84.7 589.2 84.3C617.3 84 645.7 84 673.8 85C702 86 730 88 758 89.3C786 90.7 814 91.3 842 91.3C870 91.3 898 90.7 926.2 90C954.3 89.3 982.7 88.7 1010.8 89C1039 89.3 1067 90.7 1095 90.5C1123 90.3 1151 88.7 1179 87.8C1207 87 1235 87 1263 87.2C1291 87.3 1319 87.7 1347.2 88.3C1375.3 89 1403.7 90 1431.8 89.5C1460 89 1488 87 1516 86.3C1544 85.7 1572 86.3 1586 86.7L1600 87L1600 76L1586 76.5C1572 77 1544 78 1516 79.2C1488 80.3 1460 81.7 1431.8 81.8C1403.7 82 1375.3 81 1347.2 80C1319 79 1291 78 1263 77.3C1235 76.7 1207 76.3 1179 77C1151 77.7 1123 79.3 1095 80.5C1067 81.7 1039 82.3 1010.8 82.5C982.7 82.7 954.3 82.3 926.2 82.2C898 82 870 82 842 81.8C814 81.7 786 81.3 758 80.3C730 79.3 702 77.7 673.8 77.2C645.7 76.7 617.3 77.3 589.2 78C561 78.7 533 79.3 505 79.2C477 79 449 78 421 78.2C393 78.3 365 79.7 337 80.8C309 82 281 83 252.8 83.2C224.7 83.3 196.3 82.7 168.2 81.8C140 81 112 80 84 79.2C56 78.3 28 77.7 14 77.3L0 77Z" fill="#bc2bb9"></path><path d="M0 94L14 93.8C28 93.7 56 93.3 84 93.8C112 94.3 140 95.7 168.2 96.2C196.3 96.7 224.7 96.3 252.8 95.8C281 95.3 309 94.7 337 94C365 93.3 393 92.7 421 92.3C449 92 477 92 505 92C533 92 561 92 589.2 92C617.3 92 645.7 92 673.8 92.7C702 93.3 730 94.7 758 95.7C786 96.7 814 97.3 842 97.7C870 98 898 98 926.2 97C954.3 96 982.7 94 1010.8 93.7C1039 93.3 1067 94.7 1095 95C1123 95.3 1151 94.7 1179 94.3C1207 94 1235 94 1263 93.7C1291 93.3 1319 92.7 1347.2 93.3C1375.3 94 1403.7 96 1431.8 95.7C1460 95.3 1488 92.7 1516 92C1544 91.3 1572 92.7 1586 93.3L1600 94L1600 85L1586 84.7C1572 84.3 1544 83.7 1516 84.3C1488 85 1460 87 1431.8 87.5C1403.7 88 1375.3 87 1347.2 86.3C1319 85.7 1291 85.3 1263 85.2C1235 85 1207 85 1179 85.8C1151 86.7 1123 88.3 1095 88.5C1067 88.7 1039 87.3 1010.8 87C982.7 86.7 954.3 87.3 926.2 88C898 88.7 870 89.3 842 89.3C814 89.3 786 88.7 758 87.3C730 86 702 84 673.8 83C645.7 82 617.3 82 589.2 82.3C561 82.7 533 83.3 505 83.7C477 84 449 84 421 84.7C393 85.3 365 86.7 337 87.8C309 89 281 90 252.8 90.5C224.7 91 196.3 91 168.2 89.8C140 88.7 112 86.3 84 85.3C56 84.3 28 84.7 14 84.8L0 85Z" fill="#a31da1"></path><path d="M0 101L14 101C28 101 56 101 84 101C112 101 140 101 168.2 101C196.3 101 224.7 101 252.8 101C281 101 309 101 337 101C365 101 393 101 421 101C449 101 477 101 505 101C533 101 561 101 589.2 101C617.3 101 645.7 101 673.8 101C702 101 730 101 758 101C786 101 814 101 842 101C870 101 898 101 926.2 101C954.3 101 982.7 101 1010.8 101C1039 101 1067 101 1095 101C1123 101 1151 101 1179 101C1207 101 1235 101 1263 101C1291 101 1319 101 1347.2 101C1375.3 101 1403.7 101 1431.8 101C1460 101 1488 101 1516 101C1544 101 1572 101 1586 101L1600 101L1600 92L1586 91.3C1572 90.7 1544 89.3 1516 90C1488 90.7 1460 93.3 1431.8 93.7C1403.7 94 1375.3 92 1347.2 91.3C1319 90.7 1291 91.3 1263 91.7C1235 92 1207 92 1179 92.3C1151 92.7 1123 93.3 1095 93C1067 92.7 1039 91.3 1010.8 91.7C982.7 92 954.3 94 926.2 95C898 96 870 96 842 95.7C814 95.3 786 94.7 758 93.7C730 92.7 702 91.3 673.8 90.7C645.7 90 617.3 90 589.2 90C561 90 533 90 505 90C477 90 449 90 421 90.3C393 90.7 365 91.3 337 92C309 92.7 281 93.3 252.8 93.8C224.7 94.3 196.3 94.7 168.2 94.2C140 93.7 112 92.3 84 91.8C56 91.3 28 91.7 14 91.8L0 92Z" fill="#881986"></path></svg>